<svg xmlns="http://www.w3.org/2000/svg" xmlns:xlink="http://www.w3.org/1999/xlink" width="249" height="125" viewBox="0 0 249 125"><defs><clipPath id="b"><rect width="249" height="125"/></clipPath></defs><g id="a" clip-path="url(#b)"><rect width="314" height="125" fill="none"/><rect width="50" height="100" fill="#154273"/><path d="M25.9,77.363h-.87V74.95h.87v2.413Zm3.924-10.638h-.87V64.31h.87ZM13.712,62.562c-.066,0-.516,0-.516.094s.21.045.516.1c.7.119.971.47,1.46.47a.7.7,0,0,0,.72-.943c-.029-.107-.092-.082-.106-.009a.762.762,0,0,1-.791.451C14.535,62.721,14.436,62.562,13.712,62.562ZM8.92,64.974c.076.106.9,1.171-.363,1.579-.056.019-.075.073.009.109a1.079,1.079,0,0,0,1.382-.326A1.392,1.392,0,0,1,9.7,68a2,2,0,0,0,1.222.667,1.614,1.614,0,0,0,.765-.8,1.436,1.436,0,0,1,.017.915c1.9.173,2.575-1.348,4.04-1.074.043.008.062-.019.062-.064a3.041,3.041,0,0,0-2.388-3c-1.809-.349-1.322-1.092-1.322-1.092a1.961,1.961,0,0,1,1.2.3.449.449,0,0,0-.057-.475,1.2,1.2,0,0,0,.113-.4c-.859,0-1.084-.186-1.084-.186-.132-.509.222-1.23,1.5-.459a.97.97,0,0,0,.294-.716.348.348,0,0,0,.156-.261c0-.212-1.02-.784-1.282-.852-.064-.309-.459-.755-1.658-.594-.567.07-.976-.078-.785-.409.032-.056-.069-.066-.122-.012-.131.131-.312.5.184.751a1.08,1.08,0,0,1,.588.91c.009.117-.131.127-.162.011A1.52,1.52,0,0,0,8.7,60.522a1,1,0,0,0,.874.828.432.432,0,0,0,.4-.4c0-.113.058-.1.091-.011a.676.676,0,0,1-1.094.6A1.953,1.953,0,0,0,8.6,63.53c.133.6-.163,1.191-.708.918-.028-.013-.056-.024-.056.041A.688.688,0,0,0,8.92,64.974ZM13,61.235c-.346.386-.91.3-1.045-.34C12.669,60.859,12.974,60.93,13,61.235Zm22.069,1.486a.761.761,0,0,1-.791-.451c-.015-.073-.078-.1-.106.009a.7.7,0,0,0,.72.943c.489,0,.763-.35,1.459-.47.306-.052.516,0,.516-.1s-.45-.094-.516-.094C35.63,62.562,35.531,62.721,35.072,62.721Zm7.156,1.768c0-.065-.028-.054-.055-.041-.545.273-.841-.313-.708-.918a1.951,1.951,0,0,0-.371-1.992.676.676,0,0,1-1.094-.6c.034-.088.091-.1.091.011a.432.432,0,0,0,.4.4,1,1,0,0,0,.875-.828,1.52,1.52,0,0,0-2.279.637c-.032.117-.173.106-.163-.011a1.082,1.082,0,0,1,.588-.91c.5-.249.316-.62.184-.751-.054-.054-.155-.044-.123.012.192.33-.217.479-.785.409-1.2-.161-1.595.285-1.658.594-.263.068-1.282.639-1.282.852a.348.348,0,0,0,.156.261.97.97,0,0,0,.294.716c1.275-.771,1.629-.05,1.5.459,0,0-.225.184-1.085.186a1.208,1.208,0,0,0,.114.4.449.449,0,0,0-.057.475,1.961,1.961,0,0,1,1.2-.3s.487.743-1.322,1.092a3.041,3.041,0,0,0-2.388,3c0,.045.019.072.062.064,1.466-.273,2.138,1.247,4.04,1.074a1.436,1.436,0,0,1,.017-.915,1.611,1.611,0,0,0,.765.8A2,2,0,0,0,40.368,68a1.393,1.393,0,0,1-.249-1.666,1.079,1.079,0,0,0,1.382.326c.084-.036.064-.09.009-.109-1.261-.407-.44-1.472-.363-1.579A.688.688,0,0,0,42.227,64.489ZM38.109,60.9c-.136.637-.7.726-1.045.34C37.093,60.93,37.4,60.859,38.109,60.9ZM24.7,50.212a.688.688,0,0,0,.124.379c.112.159.095.247.042.3s-.141.07-.3-.041a.68.68,0,0,0-.379-.125.341.341,0,1,0,0,.669.68.68,0,0,0,.379-.125c.16-.111.248-.094.3-.041a4.038,4.038,0,0,1-.086,1.037.8.8,0,0,0-.673.671c0,.546.584.862.928,1.045.343-.183.927-.5.927-1.045a.8.8,0,0,0-.673-.671,4.048,4.048,0,0,1-.087-1.037c.052-.053.141-.07.3.041a.68.68,0,0,0,.379.125.341.341,0,1,0,0-.669.68.68,0,0,0-.379.125c-.16.112-.248.094-.3.041s-.07-.141.042-.3a.687.687,0,0,0,.125-.379.341.341,0,1,0-.669,0Zm.334,4.06a.666.666,0,1,0,.666.666A.666.666,0,0,0,25.033,54.273Zm0,6.411a14.259,14.259,0,0,1,4.174.509c.015-1.348.005-2.1.779-1.987-.422-1.133,1.4-1.577,1.4-3.054,0-.972-.688-1.082-.891-1.082-.6,0-.509.393-1.024.393-.064,0-.13-.016-.13.031,0,.17.145.46.381.46.316,0,.322-.316.557-.316.1,0,.247.082.247.406a3.075,3.075,0,0,1-.9,1.862.546.546,0,0,0-.445-.249.623.623,0,0,0-.539.67.819.819,0,0,0,.072.352.936.936,0,0,1-.414.142.508.508,0,0,1-.549-.569c0-1.069,1.434-2.011,1.434-3.367a1.253,1.253,0,0,0-1.336-1.292c-.969,0-.789.885-1.627.885-.038,0-.069.012-.069.046,0,.056.145.545.579.545.464,0,.595-.8,1.005-.8.154,0,.383.09.383.634a4.959,4.959,0,0,1-.511,1.762.6.6,0,0,0-.423-.188.693.693,0,0,0-.617.763.941.941,0,0,0,.282.683c-.212.271-.428.491-.721.491-.579,0-.835-.329-.835-.687,0-.387.707-.528.707-1.133a.579.579,0,0,0-.525-.643.74.74,0,0,0-.446.183.745.745,0,0,0-.447-.183.579.579,0,0,0-.525.643c0,.6.707.745.707,1.133,0,.358-.255.687-.834.687-.294,0-.51-.22-.722-.491a.941.941,0,0,0,.282-.683.693.693,0,0,0-.617-.763.6.6,0,0,0-.422.188,4.97,4.97,0,0,1-.51-1.762c0-.544.23-.634.383-.634.41,0,.541.8,1.006.8.434,0,.579-.49.579-.545,0-.035-.031-.046-.07-.046-.838,0-.658-.885-1.626-.885a1.253,1.253,0,0,0-1.336,1.292c0,1.356,1.434,2.3,1.434,3.367a.508.508,0,0,1-.549.569.938.938,0,0,1-.415-.142.819.819,0,0,0,.072-.352.623.623,0,0,0-.539-.67.545.545,0,0,0-.444.249,3.071,3.071,0,0,1-.9-1.862c0-.324.146-.406.247-.406.235,0,.241.316.557.316.236,0,.38-.291.38-.46,0-.046-.066-.031-.129-.031-.515,0-.419-.393-1.023-.393-.2,0-.891.11-.891,1.082,0,1.476,1.821,1.921,1.4,3.054.773-.113.763.639.778,1.987A14.263,14.263,0,0,1,25.033,60.684Zm-4.893,1.991c-.726.159-1.248.309-1.481.381.012-.321.134-.618.42-.684a.045.045,0,0,0,.012-.081c-.647-.43-.994.394-1,.421-.23-.017-.579.054-.579.365,0,.927-2.121,1.442-2.612,1.518a2.505,2.505,0,0,1,1.227,1.426,5.438,5.438,0,0,1,1.526-1.183c.167,0,.231.21.244.334,0,.041.042.054.068.019.329-.491.171-.6.145-.747a.419.419,0,0,1,.492-.493v6.188l-.247.049c-.113.02-1.018-.75-2.054-1.466s-1.593-.288-2.774.352a3.662,3.662,0,0,1-3.109.078c-1.333.952-1.787,3.706-1.787,3.706a3.08,3.08,0,0,1-1.123.233c-1.018,0-1.2-.615-1.2-.984,0-1.571,1.967-2.244,1.967-3.792a1.872,1.872,0,0,0-2.063-1.9l-1.691,0a1,1,0,0,1-.983-.7c-.038-.076-.11-.032-.083.028.054.13-.082.328-.082.72a.938.938,0,0,0,1.057,1.007,1.662,1.662,0,0,0,.7-.146c.064-.037.1.024.068.058a1.253,1.253,0,0,0-.2,1.165c.029.038.066.028.073,0a1.706,1.706,0,0,1,1.626-1.292.954.954,0,0,1,1.02,1.082c0,1.26-2.213,2.185-2.213,3.917C5.5,74,7.354,74.373,8.43,74.094c-.063,1.759-2.077,2.359-2.138,1.1,0-.06-.048-.074-.081.005-.255.622-.154,1.169.63,1.342.053.013.027.042-.021.076-.776.493-.355,2.433-.317,3,.058.822-.759.724-.826.7-.034-.013-.066,0-.015.069a.877.877,0,0,0,1.3.061c.541.17.206.631-.155.873-.056.038-.052.076.009.08.081.005.919.076,1.068-.592a.887.887,0,0,0,1.031.223c.161-.082.946-.367,1.024.515,0,.064.042.023.068-.011a.722.722,0,0,0-.4-1.26.6.6,0,0,1,.931.111c.029.037.056.045.061-.029.049-.946-.72-1.032-1.218-.621-.023-.1-.189-.629.563-.61.018,0,.054-.027.016-.064a.714.714,0,0,0-1.175.078c-.26.306-.907.184-.967.176.2-3.287,3.1-2.122,3.5-3.72.019-.085.056-.053.064-.023.109.39,1.092.444,1.273-.324.01-.048,0-.085-.031-.049-.838.837-2.726-1.78-.15-3.907a3.737,3.737,0,0,1,4.92-.206.3.3,0,0,1-.217.379c-.036.011-.047.044.01.066a.562.562,0,0,0,.643-.142c.472.33.068.745-.123.861-.048.03-.027.062.013.07a.76.76,0,0,0,.808-.619l.073.041v1.868c0,2.66,3.068,3.028,6.435,5.283,3.367-2.255,6.435-2.624,6.435-5.283V71.751l.074-.041a.76.76,0,0,0,.808.619c.04-.008.061-.04.013-.07-.191-.115-.6-.531-.123-.861a.561.561,0,0,0,.643.142c.056-.023.046-.056.009-.066a.3.3,0,0,1-.216-.379,3.737,3.737,0,0,1,4.92.206c2.576,2.126.688,4.744-.15,3.907-.035-.036-.04,0-.03.049.18.768,1.163.714,1.272.324.008-.031.046-.062.065.023.4,1.6,3.294.432,3.5,3.72-.06.008-.707.13-.967-.176a.714.714,0,0,0-1.175-.078c-.038.037,0,.064.016.064.752-.019.586.513.562.61-.5-.411-1.267-.325-1.218.621,0,.074.032.066.061.029a.6.6,0,0,1,.931-.111.722.722,0,0,0-.4,1.26c.025.033.062.074.068.011.078-.882.862-.6,1.024-.515a.887.887,0,0,0,1.031-.223c.148.667.987.6,1.068.592.06,0,.065-.041.009-.08-.361-.241-.7-.7-.155-.873a.877.877,0,0,0,1.3-.061c.051-.065.018-.082-.015-.069-.067.024-.885.122-.826-.7.038-.57.459-2.51-.317-3-.049-.033-.075-.062-.021-.076.784-.174.885-.72.63-1.342-.033-.08-.077-.065-.081-.005-.061,1.259-2.075.659-2.138-1.1,1.076.279,2.932-.1,2.932-1.856,0-1.732-2.213-2.657-2.213-3.917a.954.954,0,0,1,1.02-1.082A1.707,1.707,0,0,1,45,68.531c.007.031.044.041.073,0a1.253,1.253,0,0,0-.2-1.165c-.031-.035,0-.1.068-.058a1.658,1.658,0,0,0,.7.146A.938.938,0,0,0,46.7,66.45c0-.393-.135-.59-.081-.72.027-.06-.046-.1-.083-.028a1,1,0,0,1-.983.7l-1.692,0a1.872,1.872,0,0,0-2.063,1.9c0,1.548,1.966,2.222,1.966,3.792,0,.369-.186.984-1.2.984a3.075,3.075,0,0,1-1.122-.233s-.454-2.754-1.787-3.706a3.662,3.662,0,0,1-3.109-.078c-1.182-.639-1.739-1.068-2.775-.352s-1.941,1.486-2.053,1.466l-.247-.049V63.948a.419.419,0,0,1,.493.493c-.026.145-.184.256.145.747.025.036.064.023.068-.019.013-.125.077-.334.244-.334a5.438,5.438,0,0,1,1.527,1.183,2.5,2.5,0,0,1,1.227-1.426c-.492-.076-2.613-.59-2.613-1.518,0-.31-.349-.382-.578-.365-.011-.027-.358-.85-1-.421a.044.044,0,0,0,.012.081c.286.066.408.363.42.684a23.267,23.267,0,0,0-6.374-.929,22.87,22.87,0,0,0-4.023.375v2.145h-.87V62.675h0M14.38,84.648A.535.535,0,0,1,14,84.1V82.771a9.577,9.577,0,0,0-3.506-.532c-1.73,0-2.272.39-2.3.528L7.734,85.3s.7-.641,3.209-.476c3.022.192,6.152,1.975,6.152.074V83.783C14.727,83.783,14.38,84.536,14.38,84.648Zm18.592-.865V84.9c0,1.9,3.131.118,6.152-.074,2.508-.164,3.209.476,3.209.476l-.46-2.536c-.025-.138-.566-.528-2.3-.528a9.573,9.573,0,0,0-3.505.532V84.1a.535.535,0,0,1-.383.545C35.687,84.536,35.34,83.783,32.972,83.783Zm-7.939-1.151c4.866,0,9.806.255,10.452.988.052.058.073,0,.073-.045V81c0-.752-5.1-1.19-10.526-1.19S14.507,80.244,14.507,81v2.579c0,.044.021.1.073.045C15.227,82.886,20.168,82.632,25.033,82.632Zm-4.34-12.159-.492-.127-.041.061-.571-.251.511,0c.048,0,.051-.031.026-.054l-.436-.427.564.21c.038.013.052-.015.034-.04-.159-.235-.376-.551-.376-.551l.553.37c.03.021.054,0,.041-.029l-.262-.647.5.476c.023.021.049.009.043-.023-.049-.227-.139-.647-.139-.647l.37.541c.022.032.05.023.05-.015,0-.106.012-.592.012-.592s.156.358.235.541c.016.037.044.04.064-.008l.19-.458.022.615-.082.016-.1.742c.735-.172,1.65-1.429,2.352-1.429.836,0,1.139.979,2.684.483A4.58,4.58,0,0,1,27.121,71c.6.561,1.433.374,1.433-.22,0-.8-.872-.952-.872-1.787a.91.91,0,0,1,.974-.909c.377,0,.929.162,1.247.162a.489.489,0,0,0,.5-.386c.034-.085.137-.057.127.009s.044.187.044.366c0,.528-.768.6-.863.532-.04-.028-.068.015-.04.037.115.093.09.407-.048.608-.017.023-.038.018-.042,0a1.155,1.155,0,0,0-.917-.845.409.409,0,0,0-.43.415c0,.475.951.907.951,1.892,0,1.023-1.013,1.268-2.032,1.013.035.968,1.48,1.544,1.515.852,0-.048.028-.018.043,0,.215.3.117.521-.157.635.252.114.3.622.372.926.111.455.594.2.617.19s.035,0,.024.028a.513.513,0,0,1-.669.294c-.255.179.053.34.284.409.035.009.032.035.005.045-.17.062-.535.176-.711-.129a.481.481,0,0,1-.5.306c-.186,0-.31.191-.267.446,0,.023-.012.029-.029.016a.4.4,0,0,1-.01-.727.323.323,0,0,0-.467.212c-.01.028-.027.029-.037,0-.194-.516.229-.666.534-.536a.472.472,0,0,0-.582-.244c-.018.005-.03,0-.018-.028a.384.384,0,0,1,.629-.155c.186.115.507-.053.536-.068-.647-1.288-1.9-.21-2.186-1.219-.005-.021-.03-.04-.048.016-.067.215-.616.229-.716-.194-.008-.033,0-.037.026-.016.08.081.253.154.479-.174a1.257,1.257,0,0,0,.171-.7,2.229,2.229,0,0,0-2-2.1,3.932,3.932,0,0,0-2.216.75l.573.131a.887.887,0,0,1-1.124.775l.089-.663a.855.855,0,0,0-.434.279.017.017,0,0,1-.03-.005.523.523,0,0,1,.3-.614c.011-.007.01-.015-.01-.015a.551.551,0,0,0-.478.264.012.012,0,0,1-.023,0A.4.4,0,0,1,20.694,70.473Zm1.7,4.478c-.22.268-.412.012-.7.012a.312.312,0,0,0-.323.317c0,.016-.011.023-.022.005a.392.392,0,0,1,.236-.678.354.354,0,0,0-.523.046c-.015.02-.033.011-.033-.013-.009-.52.4-.557.675-.329.049-.2-.078-.329-.3-.34-.026,0-.031-.017-.02-.029a.375.375,0,0,1,.272-.145c.29,0,.326.366.515.366.284,0,.685-.382.724-.423a3.387,3.387,0,0,1-.226-1.2c0-.019-.007-.021-.02-.013-.137.077-.485.074-.485-.354,0-.035.01-.037.029-.009.153.211.4-.027.523-.166s.848-1.189,1.8-1.189a1.377,1.377,0,0,1,.7.267c-.329.4,0,.784.241.735.029-.005.034.021.007.031-1.26.474-1.823.663-1.823,1.718,0,.551.188.856.511.784.025-.007.031,0,.014.023a.473.473,0,0,1-.364.186c-.261,0-.308-.143-.449-.143s-.614.276-.614.507a.4.4,0,0,0,.221.314c.011.007,0,.016,0,.017A.457.457,0,0,1,22.4,74.951ZM25.713,64.7c-.394-.024-.646.064-.634.19C25.27,65.089,25.525,65.066,25.713,64.7Zm-1.453.974a1.658,1.658,0,0,1,.617-.027.045.045,0,0,1-.007.088c-.58.074-.607.341-.977.341a.455.455,0,0,1-.409-.608c.013-.046.049-.048.06,0C23.58,65.618,23.806,65.788,24.26,65.671ZM16.73,78.529c.385.492.753.029,1.257.029.245,0,.546.084.6.577,0,.025.024.033.048,0a.715.715,0,0,0-.436-1.228.652.652,0,0,1,.955.087.03.03,0,0,0,.056-.018c0-.95-.712-1.016-1.227-.605-.1-.37.182-.614.541-.614.043,0,.058-.029.036-.054-.636-.682-1.112.175-1.22.312-.254.338-1.163-.3-1.526-.675a2.961,2.961,0,0,0,.8-1.61c0-.045-.005-.11-.005-.137s.011-.033.032-.02a.62.62,0,0,0,.3.077c.184,0,.531-.058.531-.711,0-.049-.023-.046-.044-.017a.334.334,0,0,1-.282.168c-.648,0-2-2.162-3.6-2.162a2.657,2.657,0,0,0-1.6.732.517.517,0,0,1,.21.519.569.569,0,0,1-.47.472c-.04.009-.043.038,0,.056a15.578,15.578,0,0,1,2.605,1.15c.394.34.317.984.089,1.872-.221.853-.692.736-.866.708-.025,0-.034.012-.018.032a.853.853,0,0,0,.678.35c.418,0,.575-.26.792-.26.365,0,1.128.523,1.128.921a.75.75,0,0,1-.4.572c-.015.011-.012.028.01.032C15.877,79.111,16.592,79.172,16.73,78.529Zm17.634.553c.022,0,.025-.021.011-.032a.75.75,0,0,1-.4-.572c0-.4.763-.921,1.128-.921.217,0,.373.26.792.26a.855.855,0,0,0,.679-.35c.015-.02.007-.036-.018-.032-.174.028-.646.145-.866-.708-.228-.887-.305-1.532.089-1.872a15.546,15.546,0,0,1,2.605-1.15c.043-.017.04-.046,0-.056a.569.569,0,0,1-.47-.472.516.516,0,0,1,.21-.519,2.659,2.659,0,0,0-1.605-.732c-1.6,0-2.949,2.162-3.6,2.162a.333.333,0,0,1-.281-.168c-.021-.029-.044-.032-.044.017,0,.653.346.711.53.711a.623.623,0,0,0,.3-.077c.021-.013.032,0,.032.02s-.005.092-.005.137a2.96,2.96,0,0,0,.8,1.61c-.363.378-1.272,1.013-1.526.675-.108-.137-.584-.994-1.22-.312-.023.025-.007.054.036.054.358,0,.637.244.541.614-.515-.411-1.227-.345-1.227.605a.03.03,0,0,0,.056.018.651.651,0,0,1,.954-.087.715.715,0,0,0-.436,1.228c.023.033.044.025.048,0,.056-.493.357-.577.6-.577.5,0,.872.463,1.257-.029C33.475,79.172,34.19,79.111,34.363,79.082ZM21.449,66.608c-.051.07-.219,0-.283-.032-.015-.007-.017,0-.012.011.04.09.2.361.442.361a.435.435,0,0,0,.312-.137s.94.305,1.4.434a1.588,1.588,0,0,0-.316.844c-.375-.231-1.874-1.035-1.874-1.035l-.465.635c-.077.1-.448-.166-.371-.272l.355-.485c-.117-.125-.4-.046-.477-.024-.011,0-.021,0-.011-.021a.509.509,0,0,1,.663-.257c0-.269-.4-.183-.505-.154-.013,0-.017,0-.005-.015a.647.647,0,0,1,.8-.164l.159-.219-.322-.338.2-.277.225.3,1.731-2.37a1.709,1.709,0,0,1,.515-.186,1.754,1.754,0,0,1-.013.546l-1.7,2.392.359.118-.2.278-.424-.2Zm6.071-.387c0,.217.134.536.424.444.015-.007.028,0,.025.012-.044.243-.477.464-.675.178a.632.632,0,0,0,.244.921.032.032,0,0,1,0,.056.494.494,0,0,1-.741-.188.645.645,0,0,0-.077.9,1.941,1.941,0,0,1-1.639.147,2.921,2.921,0,0,0-1.606-.513c.093-.935.56-1.182,1.42-1.316.687-.111.775-.427.676-.666a1.3,1.3,0,0,0-.661.153.245.245,0,0,1,.035-.263.656.656,0,0,1-.064-.224c.48,0,.565-.106.565-.106.086-.5-.424-.553-.812-.284a.447.447,0,0,1-.151-.372.2.2,0,0,1-.087-.146c0-.118.57-.439.716-.476.037-.166.244-.4.849-.341a1.927,1.927,0,0,0-.119-.9c-.024-.048.011-.074.064-.041.212.134.422.628.565.637a6.475,6.475,0,0,1,.714-.337,7.163,7.163,0,0,1,.129.779c.09.111.616,0,.845.1.058.025.056.068,0,.076a1.923,1.923,0,0,0-.81.416A2.226,2.226,0,0,1,27.519,66.22Z" fill="#fff"/><path d="M61.876,64.465a1.065,1.065,0,0,0,.9-1.179V55.674l-.977-.311v-.341a16.906,16.906,0,0,1,3.085-.232c2.341,0,3.457.915,3.457,2.62a2.917,2.917,0,0,1-2.232,2.961l2.186,2.93a3.024,3.024,0,0,0,1.442,1.055v.294a2.037,2.037,0,0,1-1.178.341c-.667,0-1.1-.263-1.659-1.1l-2.046-3.1h-.729v3.271l.977.248v.341a5.966,5.966,0,0,1-1.768.264,6.1,6.1,0,0,1-1.457-.155v-.294Zm2.853-4.419a2.15,2.15,0,0,0,2.2-2.4,1.9,1.9,0,0,0-2.139-2,4.875,4.875,0,0,0-.667.062v4.341h.6Z"/><path d="M70.514,64.5c.419-.154.822-.465.822-.837v-5.24L70.343,58v-.326a7.311,7.311,0,0,1,1.845-.294h.5l-.078.837v5.892l.868.232v.294a4.936,4.936,0,0,1-1.8.264,4.268,4.268,0,0,1-1.163-.14V64.5Zm.651-9.426a.88.88,0,0,1,.884-.915.8.8,0,0,1,.806.837.9.9,0,0,1-.868.961A.833.833,0,0,1,71.165,55.069Z"/><path d="M75.046,58.418,74.054,58v-.326a7.415,7.415,0,0,1,1.86-.294h.5l-.093.868v6.961c0,2.542-.76,3.333-1.752,3.333a1.081,1.081,0,0,1-.868-.372v-.248c.682,0,1.349-.775,1.349-2.356Zm-.171-3.349a.881.881,0,0,1,.884-.915.8.8,0,0,1,.807.837.9.9,0,0,1-.868.961A.834.834,0,0,1,74.875,55.069Z"/><path d="M77.842,64.5c.419-.154.838-.465.838-.837V54.666l-1.023-.419v-.341a7.381,7.381,0,0,1,1.86-.279h.526l-.093.868v6.2l.853-.744a4.243,4.243,0,0,0,1.6-2.48,2.4,2.4,0,0,1,.821-.124,1.4,1.4,0,0,1,.62.14c-.031.667-.7,1.721-2.108,2.729l-.543.388,2.388,2.9a1.632,1.632,0,0,0,1.147.744v.326a1.919,1.919,0,0,1-1.147.325,1.309,1.309,0,0,1-1.1-.589L79.95,60.976v3.132l.807.248v.294A5.083,5.083,0,0,1,79,64.9a4.27,4.27,0,0,1-1.163-.14V64.5Z"/><path d="M85.407,63.085a3.075,3.075,0,0,0,2.186.977c.868,0,1.318-.419,1.318-.961s-.311-.884-1.334-1.318l-.774-.326a2.034,2.034,0,0,1-1.4-1.922,2.461,2.461,0,0,1,2.7-2.279c1.24,0,1.736.372,1.736.961a3.029,3.029,0,0,1-.077.651A3.347,3.347,0,0,0,88,58.279c-.992,0-1.457.434-1.457.961,0,.558.279.868,1.209,1.225l.837.326c1.116.434,1.535,1.008,1.535,1.922,0,1.194-1.147,2.279-2.884,2.279-1.364,0-1.969-.434-1.969-1.271A1.419,1.419,0,0,1,85.407,63.085Z"/><path d="M94.731,57.287a5.179,5.179,0,0,1,1.07.108V54.666l-1.055-.419v-.341a7.718,7.718,0,0,1,1.923-.279h.5l-.094.868v8.883a2.162,2.162,0,0,0,.59.9,5.287,5.287,0,0,1-1.086.729,2.833,2.833,0,0,1-.744-.93,3.1,3.1,0,0,1-1.984.884c-1.565,0-2.821-1.3-2.821-3.365C91.026,58.806,92.717,57.287,94.731,57.287Zm1.086,6.17V58.325a3.782,3.782,0,0,0-1.132-.17c-1.318,0-2.311,1.039-2.311,3.193,0,1.69.884,2.6,1.86,2.6A2.672,2.672,0,0,0,95.817,63.457Z"/><path d="M98.8,64.5c.419-.154.821-.465.821-.837v-5.24L98.627,58v-.326a7.317,7.317,0,0,1,1.846-.294h.5l-.078.837v5.892l.868.232v.294a4.936,4.936,0,0,1-1.8.264,4.27,4.27,0,0,1-1.163-.14V64.5Zm.651-9.426a.88.88,0,0,1,.884-.915.8.8,0,0,1,.806.837.9.9,0,0,1-.868.961A.833.833,0,0,1,99.449,55.069Z"/><path d="M105.788,57.271a2.587,2.587,0,0,1,2.683,2.9c0,.294,0,.6-.016.992h-4.574c0,1.736,1.008,2.744,2.295,2.744a4.084,4.084,0,0,0,2.186-.666,1.279,1.279,0,0,1,.063.4c0,.7-1.023,1.349-2.667,1.349a3.27,3.27,0,0,1-3.209-3.55C102.548,58.744,104.176,57.271,105.788,57.271Zm1.442,3.085c0-1.52-.651-2.248-1.566-2.248a2.148,2.148,0,0,0-1.752,2.248Z"/><path d="M109.468,64.5c.4-.154.821-.465.821-.837v-5.24L109.282,58v-.341a7.286,7.286,0,0,1,1.86-.279h.372v.837a3.319,3.319,0,0,1,2.294-.868,2.112,2.112,0,0,1,2.171,2.419v4.341l.806.232v.294a4.345,4.345,0,0,1-1.628.264,3.175,3.175,0,0,1-1.008-.14V64.5a.952.952,0,0,0,.559-1.022V60.511c0-1.52-.636-2.093-1.551-2.093a2.789,2.789,0,0,0-1.6.481v5.209l.868.232v.294a4.988,4.988,0,0,1-1.8.264,4.2,4.2,0,0,1-1.163-.14V64.5Z"/><path d="M117.83,63.085a3.075,3.075,0,0,0,2.186.977c.868,0,1.318-.419,1.318-.961s-.311-.884-1.334-1.318l-.774-.326a2.034,2.034,0,0,1-1.4-1.922,2.461,2.461,0,0,1,2.7-2.279c1.24,0,1.736.372,1.736.961a3.029,3.029,0,0,1-.077.651,3.347,3.347,0,0,0-1.768-.589c-.992,0-1.457.434-1.457.961,0,.558.278.868,1.209,1.225l.837.326c1.116.434,1.535,1.008,1.535,1.922,0,1.194-1.147,2.279-2.884,2.279-1.364,0-1.969-.434-1.969-1.271A1.409,1.409,0,0,1,117.83,63.085Z"/><path d="M124.137,60.526l.046-2.062h-.853v-.511l1.675-1.659.512-.062-.062,1.4H127.5l-.108.837h-1.984l-.031,1.954c-.016.651-.016,1.24-.016,1.814,0,1.256.372,1.69.945,1.69a1.808,1.808,0,0,0,1.147-.4l.155.063c-.062.914-.6,1.38-1.675,1.38-1.24,0-1.845-.651-1.845-2.156C124.09,62.061,124.121,61.24,124.137,60.526Z"/><path d="M130.6,58.2l-.635-.45v-.372h2.961v.372l-.884.372,1.674,4.915h.016l1.721-4.868-.884-.418v-.372h2.388v.372l-.434.356-2.76,6.837-.527.031Z"/><path d="M140.629,57.255a3.354,3.354,0,0,1,3.379,3.581,3.87,3.87,0,0,1-3.627,4.17,3.323,3.323,0,0,1-3.4-3.581C136.985,58.883,138.722,57.255,140.629,57.255Zm-.155,6.853c1.038,0,2.124-1.008,2.124-3.132,0-1.814-.977-2.821-2.078-2.821-1.069,0-2.123,1.069-2.123,3.116C138.4,63.146,139.373,64.108,140.474,64.108Z"/><path d="M148.719,57.255a3.354,3.354,0,0,1,3.379,3.581,3.87,3.87,0,0,1-3.627,4.17,3.323,3.323,0,0,1-3.4-3.581C145.075,58.883,146.812,57.255,148.719,57.255Zm-.156,6.853c1.038,0,2.124-1.008,2.124-3.132,0-1.814-.977-2.821-2.078-2.821-1.069,0-2.123,1.069-2.123,3.116C146.486,63.146,147.463,64.108,148.563,64.108Z"/><path d="M153.068,64.5c.4-.154.822-.465.822-.837v-5.24L152.882,58v-.341a7.286,7.286,0,0,1,1.86-.279h.372v1.085h.016l.434-.48a1.8,1.8,0,0,1,1.364-.682c.543,0,.806.233.806.667a2.087,2.087,0,0,1-.248.931,1.567,1.567,0,0,0-.961-.357,1.961,1.961,0,0,0-1.364.636v4.931l1.07.232v.294a5.343,5.343,0,0,1-1.923.264,4.409,4.409,0,0,1-1.24-.14Z"/><path d="M165.624,54.713c2.278,0,4.108,1.8,4.108,4.667,0,3.565-2.187,5.643-4.667,5.643-2.278,0-4.123-1.86-4.123-4.93C160.942,56.852,163.205,54.713,165.624,54.713Zm2.589,4.945c0-2.713-1.317-3.953-2.76-3.953-1.488,0-2.977,1.488-2.977,4.2,0,2.729,1.334,4.124,2.744,4.124C166.709,64.03,168.213,62.666,168.213,59.658Z"/><path d="M170.949,64.5c.4-.154.822-.465.822-.837v-5.24L170.763,58v-.341a7.286,7.286,0,0,1,1.86-.279H173v.837a3.319,3.319,0,0,1,2.294-.868,2.112,2.112,0,0,1,2.171,2.419v4.341l.806.232v.294a4.348,4.348,0,0,1-1.628.264,3.175,3.175,0,0,1-1.008-.14V64.5a.952.952,0,0,0,.559-1.022V60.511c0-1.52-.636-2.093-1.551-2.093a2.789,2.789,0,0,0-1.6.481v5.209l.868.232v.294a5,5,0,0,1-1.8.264,4.2,4.2,0,0,1-1.163-.14Z"/><path d="M182.754,57.287a5.179,5.179,0,0,1,1.07.108V54.666l-1.055-.419v-.341a7.712,7.712,0,0,1,1.923-.279h.5l-.093.868v8.883a2.15,2.15,0,0,0,.589.9,5.305,5.305,0,0,1-1.085.729,2.808,2.808,0,0,1-.744-.93,3.1,3.1,0,0,1-1.984.884c-1.566,0-2.822-1.3-2.822-3.365C179.049,58.806,180.739,57.287,182.754,57.287Zm1.086,6.17V58.325a3.782,3.782,0,0,0-1.132-.17c-1.318,0-2.311,1.039-2.311,3.193,0,1.69.884,2.6,1.86,2.6A2.675,2.675,0,0,0,183.84,63.457Z"/><path d="M189.931,57.271a2.587,2.587,0,0,1,2.683,2.9c0,.294,0,.6-.016.992h-4.574c0,1.736,1.008,2.744,2.295,2.744a4.084,4.084,0,0,0,2.186-.666,1.279,1.279,0,0,1,.063.4c0,.7-1.023,1.349-2.667,1.349a3.27,3.27,0,0,1-3.209-3.55C186.69,58.744,188.318,57.271,189.931,57.271Zm1.442,3.085c0-1.52-.651-2.248-1.566-2.248a2.148,2.148,0,0,0-1.752,2.248Z"/><path d="M193.609,64.5c.4-.154.822-.465.822-.837v-5.24L193.423,58v-.341a7.286,7.286,0,0,1,1.86-.279h.372v1.085h.016l.434-.48a1.8,1.8,0,0,1,1.364-.682c.543,0,.806.233.806.667a2.087,2.087,0,0,1-.248.931,1.567,1.567,0,0,0-.961-.357,1.961,1.961,0,0,0-1.364.636v4.931l1.07.232v.294a5.343,5.343,0,0,1-1.923.264,4.409,4.409,0,0,1-1.24-.14Z"/><path d="M199.082,64.5c.4-.154.822-.465.822-.837v-5.24L198.9,58v-.341a7.286,7.286,0,0,1,1.86-.279h.372v.837a3.319,3.319,0,0,1,2.294-.868,2.112,2.112,0,0,1,2.171,2.419v4.341l.806.232v.294a4.348,4.348,0,0,1-1.628.264,3.175,3.175,0,0,1-1.008-.14V64.5a.952.952,0,0,0,.559-1.022V60.511c0-1.52-.636-2.093-1.551-2.093a2.789,2.789,0,0,0-1.6.481v5.209l.868.232v.294a5,5,0,0,1-1.8.264,4.2,4.2,0,0,1-1.163-.14Z"/><path d="M210.423,57.271a2.587,2.587,0,0,1,2.683,2.9c0,.294,0,.6-.016.992h-4.574c0,1.736,1.008,2.744,2.295,2.744A4.084,4.084,0,0,0,213,63.24a1.279,1.279,0,0,1,.063.4c0,.7-1.023,1.349-2.667,1.349a3.27,3.27,0,0,1-3.209-3.55C207.183,58.744,208.811,57.271,210.423,57.271Zm1.442,3.085c0-1.52-.651-2.248-1.566-2.248a2.148,2.148,0,0,0-1.752,2.248Z"/><path d="M214.1,64.5c.4-.154.822-.465.822-.837v-5.24L213.916,58v-.341a7.286,7.286,0,0,1,1.86-.279h.372v.837a3.281,3.281,0,0,1,2.278-.868,2.041,2.041,0,0,1,1.752.946,3.83,3.83,0,0,1,2.388-.946c1.3,0,2.154.791,2.154,2.465v4.295l.807.232v.294a4.491,4.491,0,0,1-1.644.264,3.08,3.08,0,0,1-.992-.14V64.5a.952.952,0,0,0,.559-1.022V60.449c0-1.411-.62-2.031-1.581-2.031a3.191,3.191,0,0,0-1.488.357,6.711,6.711,0,0,1,.093,1.163v4.171l.806.232v.294a4.4,4.4,0,0,1-1.628.264,3.165,3.165,0,0,1-1.007-.14V64.5a.953.953,0,0,0,.558-1.022V60.62c0-1.721-.512-2.2-1.473-2.2a2.583,2.583,0,0,0-1.535.481v5.209l.868.232v.294a5.048,5.048,0,0,1-1.8.264,4.2,4.2,0,0,1-1.163-.14Z"/><path d="M229.564,57.271a2.586,2.586,0,0,1,2.682,2.9c0,.294,0,.6-.015.992h-4.573c0,1.736,1.007,2.744,2.294,2.744a4.084,4.084,0,0,0,2.186-.666,1.279,1.279,0,0,1,.063.4c0,.7-1.023,1.349-2.667,1.349a3.27,3.27,0,0,1-3.209-3.55C226.324,58.744,227.952,57.271,229.564,57.271Zm1.442,3.085c0-1.52-.65-2.248-1.565-2.248a2.148,2.148,0,0,0-1.752,2.248Z"/><path d="M233.243,64.5c.4-.154.821-.465.821-.837v-5.24L233.057,58v-.341a7.286,7.286,0,0,1,1.86-.279h.372v.837a3.319,3.319,0,0,1,2.294-.868,2.112,2.112,0,0,1,2.171,2.419v4.341l.806.232v.294a4.345,4.345,0,0,1-1.628.264,3.175,3.175,0,0,1-1.008-.14V64.5a.952.952,0,0,0,.559-1.022V60.511c0-1.52-.636-2.093-1.551-2.093a2.789,2.789,0,0,0-1.6.481v5.209l.868.232v.294a4.988,4.988,0,0,1-1.8.264,4.2,4.2,0,0,1-1.163-.14Z"/><path d="M245.049,57.287a5.179,5.179,0,0,1,1.07.108V54.666l-1.055-.419v-.341a7.712,7.712,0,0,1,1.923-.279h.5l-.093.868v8.883a2.15,2.15,0,0,0,.589.9,5.305,5.305,0,0,1-1.085.729,2.808,2.808,0,0,1-.744-.93,3.1,3.1,0,0,1-1.984.884c-1.566,0-2.822-1.3-2.822-3.365C241.344,58.806,243.034,57.287,245.049,57.287Zm1.086,6.17V58.325a3.782,3.782,0,0,0-1.132-.17c-1.318,0-2.311,1.039-2.311,3.193,0,1.69.884,2.6,1.86,2.6A2.675,2.675,0,0,0,246.135,63.457Z"/><path d="M61.876,82.064c.682-.186.9-.526.9-1.364V73.243l-.977-.263v-.45a13.685,13.685,0,0,1,1.706-.108h.573l4.31,7.085.031-.016V73.2l-.992-.248v-.325a5.327,5.327,0,0,1,1.551-.264,3.782,3.782,0,0,1,1.3.17v.279c-.682.217-.883.5-.883,1.457v8.124l-.729.17-4.9-8.077-.016.016v7.163l.945.248v.341a3.878,3.878,0,0,1-1.411.264,4.927,4.927,0,0,1-1.411-.155v-.295Z"/><path d="M74.416,74.871a2.587,2.587,0,0,1,2.682,2.9c0,.295,0,.6-.015.992H72.509c0,1.736,1.008,2.744,2.294,2.744a4.076,4.076,0,0,0,2.186-.667,1.286,1.286,0,0,1,.063.4c0,.7-1.023,1.349-2.667,1.349a3.27,3.27,0,0,1-3.209-3.55C71.176,76.345,72.8,74.871,74.416,74.871Zm1.441,3.085c0-1.519-.65-2.247-1.565-2.247a2.147,2.147,0,0,0-1.752,2.247Z"/><path d="M81.829,74.887A5.213,5.213,0,0,1,82.9,75V72.267l-1.055-.418v-.342a7.733,7.733,0,0,1,1.923-.278h.5l-.094.868v8.883a2.162,2.162,0,0,0,.59.9,5.287,5.287,0,0,1-1.086.729,2.826,2.826,0,0,1-.744-.931,3.1,3.1,0,0,1-1.984.884c-1.565,0-2.821-1.3-2.821-3.364C78.124,76.406,79.814,74.887,81.829,74.887Zm1.086,6.171V75.926a3.8,3.8,0,0,0-1.132-.171c-1.318,0-2.311,1.039-2.311,3.193,0,1.69.884,2.605,1.86,2.605A2.671,2.671,0,0,0,82.915,81.058Z"/><path d="M89.006,74.871a2.587,2.587,0,0,1,2.682,2.9c0,.295,0,.6-.015.992H87.1c0,1.736,1.007,2.744,2.294,2.744a4.076,4.076,0,0,0,2.186-.667,1.286,1.286,0,0,1,.063.4c0,.7-1.023,1.349-2.667,1.349a3.27,3.27,0,0,1-3.209-3.55C85.766,76.345,87.394,74.871,89.006,74.871Zm1.441,3.085c0-1.519-.65-2.247-1.565-2.247a2.147,2.147,0,0,0-1.752,2.247Z"/><path d="M92.685,82.1c.4-.155.821-.465.821-.837v-5.24L92.5,75.6v-.342a7.308,7.308,0,0,1,1.86-.279h.372v1.086h.015l.435-.48a1.8,1.8,0,0,1,1.364-.683c.543,0,.807.232.807.667a2.1,2.1,0,0,1-.248.93,1.574,1.574,0,0,0-.962-.356,1.959,1.959,0,0,0-1.364.636v4.93l1.07.232v.295a5.364,5.364,0,0,1-1.923.264,4.409,4.409,0,0,1-1.24-.14Z"/><path d="M97.65,82.1c.4-.155.822-.465.822-.837V72.267l-1.008-.418v-.342a7.3,7.3,0,0,1,1.86-.278h.5l-.078.868v9.611l.868.232v.295a5.017,5.017,0,0,1-1.8.264,4.2,4.2,0,0,1-1.163-.14V82.1Z"/><path d="M105.439,78.344v-.418c0-1.675-.4-2.031-1.379-2.031a3.285,3.285,0,0,0-2.326,1.008,2.241,2.241,0,0,1-.046-.465c0-.992.729-1.566,2.542-1.566,1.566,0,2.5.791,2.5,2.078,0,.341-.047,1.116-.062,1.565l-.046,2.512a1.972,1.972,0,0,0,.62.79,3.532,3.532,0,0,1-1.055.791,2.12,2.12,0,0,1-.713-.76,3.216,3.216,0,0,1-2.093.744,1.786,1.786,0,0,1-1.969-1.721C101.409,79.507,102.9,78.344,105.439,78.344Zm-1.488,3.318a3.245,3.245,0,0,0,1.488-.419v-2.17c-1.752,0-2.7.729-2.7,1.565C102.742,81.259,103.161,81.662,103.951,81.662Z"/><path d="M108.313,82.1c.4-.155.821-.465.821-.837v-5.24l-1.007-.418v-.342a7.308,7.308,0,0,1,1.86-.279h.372v.838a3.317,3.317,0,0,1,2.294-.868,2.112,2.112,0,0,1,2.171,2.418v4.341l.806.232v.295A4.345,4.345,0,0,1,114,82.5a3.175,3.175,0,0,1-1.008-.14V82.1a.953.953,0,0,0,.559-1.023V78.111c0-1.519-.636-2.093-1.551-2.093a2.789,2.789,0,0,0-1.6.48v5.209l.868.232v.295a5.01,5.01,0,0,1-1.8.264,4.2,4.2,0,0,1-1.163-.14V82.1Z"/><path d="M120.118,74.887a5.213,5.213,0,0,1,1.07.108V72.267l-1.055-.418v-.342a7.733,7.733,0,0,1,1.923-.278h.5l-.094.868v8.883a2.162,2.162,0,0,0,.59.9,5.287,5.287,0,0,1-1.086.729,2.826,2.826,0,0,1-.744-.931,3.1,3.1,0,0,1-1.984.884c-1.565,0-2.821-1.3-2.821-3.364C116.413,76.406,118.1,74.887,120.118,74.887Zm1.086,6.171V75.926a3.8,3.8,0,0,0-1.132-.171c-1.318,0-2.311,1.039-2.311,3.193,0,1.69.884,2.605,1.86,2.605A2.67,2.67,0,0,0,121.2,81.058Z"/><rect width="314" height="125" fill="none"/></g></svg>