<svg xmlns="http://www.w3.org/2000/svg" xmlns:xlink="http://www.w3.org/1999/xlink" width="48" height="48" viewBox="0 0 48 48"><defs><clipPath id="b"><rect width="48" height="48"/></clipPath></defs><g id="a" clip-path="url(#b)"><g transform="translate(0 -0.002)"><path d="M47.77,3.64c-.17,1.26-.35,2.52-.5,3.79q-.735,6.525-1.45,13.04c-.06.54-.12,1.09-.19,1.63a2.741,2.741,0,0,1-2.75,2.44,2.7,2.7,0,0,1-2.7-2.49c-.26-2.72-.49-5.44-.75-8.3-.23.22-.39.37-.54.52q-5,4.995-10,10a3.3,3.3,0,0,1-2.59,1.22,5.338,5.338,0,0,1-4.04-3.95,3.07,3.07,0,0,1,1.06-2.52q5.07-5.055,10.13-10.13c.16-.16.31-.33.53-.57l-4.11-.37c-1.42-.13-2.85-.24-4.27-.38a2.706,2.706,0,0,1-2.4-2.72,2.707,2.707,0,0,1,2.33-2.72C29.67,1.65,33.8,1.2,37.94.74,39.93.52,41.91.31,43.9.08,46.12-.17,46.7.11,47.77,2V3.64Z" fill="#42145f"/><path d="M41.1,27.2v.7c0,5.64-.04,11.28.02,16.92a2.721,2.721,0,0,1-2.9,2.93q-17.715-.075-35.42,0A2.715,2.715,0,0,1,0,44.98C.05,33.08.02,21.19.03,9.3A2.422,2.422,0,0,1,2.59,6.66c5.83-.01,11.66,0,17.49,0a4.469,4.469,0,0,1,.47.04v6.82H6.9V40.84H34.22V27.2H41.1Z" fill="#42145f"/></g></g></svg>