<svg xmlns="http://www.w3.org/2000/svg" xmlns:xlink="http://www.w3.org/1999/xlink" width="48" height="48" viewBox="0 0 48 48"><defs><clipPath id="b"><rect width="48" height="48"/></clipPath></defs><g id="a" clip-path="url(#b)"><g transform="translate(-0.06 0.44)"><path d="M.06,36.57V1.87A2.494,2.494,0,0,1,2.61.56C8.92.6,15.23.58,21.54.58H45.79A1.89,1.89,0,0,1,47.94,2.7q0,16.56-.01,33.11a2.569,2.569,0,0,1-.36,1.3,1.961,1.961,0,0,1-1.87.83H22.66c-.23,0-.45.02-.68.03v.2a4.147,4.147,0,0,0,.63.16c2.53.43,5.07.87,7.6,1.28a.8.8,0,0,1,.75.68c.19.75.43,1.5.67,2.24a2.7,2.7,0,0,0,2.79,2.02c.63,0,1.27-.01,1.9,0,.56.02,1.02.25,1.08.86.06.66.01,1.33.01,2H10.63c-.02-.09-.04-.13-.04-.16,0-.49-.01-.97,0-1.46,0-.88.34-1.22,1.22-1.24.65-.01,1.31.01,1.96,0a2.649,2.649,0,0,0,2.56-1.9c.38-1.18.73-2.37,1.09-3.56.11-.36.19-.72.31-1.16h-.82c-4.77,0-9.54-.02-14.31.01A2.477,2.477,0,0,1,.07,36.56ZM4.9,31.13H43.07V5.43H4.91V31.14Z" fill="#42145f"/><path d="M30.58,20.98l-1.45,2.25-3.69-2.37-1,2.69-6.21-9.41,11.45,2.8-2.62,1.74,3.53,2.3Z" fill="#42145f"/></g></g></svg>