<svg xmlns="http://www.w3.org/2000/svg" xmlns:xlink="http://www.w3.org/1999/xlink" width="18" height="18" viewBox="0 0 18 18"><defs><clipPath id="b"><rect width="18" height="18"/></clipPath></defs><g id="a" clip-path="url(#b)"><g transform="translate(0 -0.002)"><path d="M31.87,1.374c-.064.475-.132.95-.188,1.429q-.277,2.46-.547,4.916c-.023.2-.045.411-.072.614a1.033,1.033,0,0,1-1.037.92,1.016,1.016,0,0,1-1.018-.939c-.1-1.025-.185-2.051-.283-3.129-.087.083-.147.139-.2.2q-1.883,1.883-3.77,3.77a1.242,1.242,0,0,1-.976.46,2.012,2.012,0,0,1-1.523-1.489,1.158,1.158,0,0,1,.4-.95q1.911-1.906,3.819-3.819c.06-.06.117-.124.2-.215L25.122,3c-.535-.049-1.074-.09-1.61-.143a1.02,1.02,0,0,1-.9-1.025A1.021,1.021,0,0,1,23.486.8C25.046.623,26.6.454,28.164.28c.75-.083,1.5-.162,2.247-.249.837-.094,1.056.011,1.459.724v.618Z" transform="translate(-13.861 0)"/></g></g></svg>