<svg xmlns="http://www.w3.org/2000/svg" xmlns:xlink="http://www.w3.org/1999/xlink" width="105" height="100" viewBox="0 0 105 100" fill="#000000"><defs><clipPath id="b"><rect width="105" height="100"/></clipPath></defs><g id="a" clip-path="url(#b)"><g transform="translate(-4 -4)"><path d="M9,56.088v15.84H29.755V47.539l-7.841-7.374Z" transform="translate(4.434 32.071)"/><path d="M29.755,42.781V21H9V47.923L20.345,33.934Z" transform="translate(4.434 15.075)"/><path d="M24,58.14V75.433H44.755V36.214L26.987,60.95Z" transform="translate(17.735 28.567)"/><path d="M44.755,28.168V15H24V55.2l.787.74Z" transform="translate(17.735 9.755)"/><path d="M39,31.168V80.893H59.755V53.761L39.8,30.057Z" transform="translate(31.037 23.107)"/><path d="M59.755,51.979V4H39l.034,23.381Z" transform="translate(31.037 0)"/><path d="M98.9,53.955,70.272,19.97,43.1,57.77,25.191,40.931,4,67.059V79.04L25.936,51.991,44.144,69.114,70.632,32.25,99.666,66.729l9.994-15.57V37.187Z" transform="translate(0 14.162)"/></g></g></svg>