<svg xmlns="http://www.w3.org/2000/svg" xmlns:xlink="http://www.w3.org/1999/xlink" width="48" height="48" viewBox="0 0 48 48"><defs><clipPath id="b"><rect width="48" height="48"/></clipPath></defs><g id="a" clip-path="url(#b)"><g transform="translate(-0.06 0.624)"><path d="M.08,35.89c.15-.45.29-.91.44-1.36a4.365,4.365,0,0,1,4.17-3.2c.61-.05,1.21-.15,1.81-.25a1.623,1.623,0,0,0,.61-.29C4.84,30.4,2.63,29.94.8,28.37a6.826,6.826,0,0,0,1.56-4.95,24.253,24.253,0,0,1,.13-2.96,2.8,2.8,0,0,1,3.09-2.61,3.209,3.209,0,0,0,1.35-.34,5.2,5.2,0,0,1,3.53-.62,3.186,3.186,0,0,1,2.39,4.17,4.55,4.55,0,0,0,.02,2.78c.58,1.99-.25,3.72-1.19,5.38-.18.31-.69.44-1.07.66-.06.96.16,1.3,1.06,1.71.54.24,1.07.49,1.59.78a6.864,6.864,0,0,1,3.79,5.35c.18,1.46.41,2.92.61,4.38H16.9a2.355,2.355,0,0,0-.35-.11c-1.55-.18-3.11-.3-4.65-.54C7.56,40.77,3.42,39.57.06,36.53V35.9Z" fill="#42145f"/><path d="M30.35,42.09c.37-2.09.71-4.19,1.12-6.27a3.721,3.721,0,0,1,1.65-2.18,24.634,24.634,0,0,1,3.01-1.96,6.317,6.317,0,0,1,1.77-.34c.57-.11,1.13-.23,1.69-.35l-.02-.22-1.76-.18c-1.95-.21-2.12-.35-2.51-2.26a7.17,7.17,0,0,1,.16-4.77,4.474,4.474,0,0,0,.18-1.24c.07-.5.15-1,.2-1.5a3.979,3.979,0,0,0,0-1.09A1.5,1.5,0,0,1,36.79,18a5.439,5.439,0,0,1,5.11,0,1.839,1.839,0,0,0,.82.23,2.351,2.351,0,0,1,2.57,1.96,10.577,10.577,0,0,1-.6,7.22c-.31.69-.66,1.36-.97,2.06-.15.34-.25.7-.39,1.12h1.46a2.128,2.128,0,0,1,2.23,1.45,34.9,34.9,0,0,1,.89,4.18c.03.17-.21.44-.38.59a18.577,18.577,0,0,1-7.72,3.89,44.56,44.56,0,0,1-8.05,1.28c-.22.02-.45.08-.67.12h-.76Z" fill="#42145f"/><path d="M19.46,10.69c0-.94-.02-2.03,0-3.13a2.456,2.456,0,0,1,1.43-2.28,14.234,14.234,0,0,1,1.86-.76,2.83,2.83,0,0,1,2.43.32,1.441,1.441,0,0,0,.81.24,1.992,1.992,0,0,1,2.46,1.68,21.442,21.442,0,0,1,.17,3.01c.01.36-.04.71-.06,1.14.74-.05.8.44.8.98a1.971,1.971,0,0,1-.77,1.89.815.815,0,0,0-.24.49,6.247,6.247,0,0,1-1.42,2.85.869.869,0,0,0,.49,1.5c1.07.32,2.13.66,3.17,1.05a3.359,3.359,0,0,1,2.29,2.99c.19,1.81.35,3.63.53,5.55a47.848,47.848,0,0,0-18.7-.03,23.261,23.261,0,0,1,.72-6.68,2.675,2.675,0,0,1,1.65-1.65c1.19-.48,2.41-.87,3.63-1.27a.86.86,0,0,0,.47-1.36,6.3,6.3,0,0,1-1.53-3.07.717.717,0,0,0-.24-.41,2.209,2.209,0,0,1-.64-2.41c.03-.2.37-.35.7-.64Z" fill="#42145f"/></g></g></svg>