<svg xmlns="http://www.w3.org/2000/svg" xmlns:xlink="http://www.w3.org/1999/xlink" width="48" height="48" viewBox="0 0 48 48"><defs><clipPath id="a"><rect width="48" height="48" fill="#42145f"/></clipPath><clipPath id="c"><rect width="48" height="48"/></clipPath></defs><g id="b" clip-path="url(#c)"><g clip-path="url(#a)"><path d="M24,0A24,24,0,1,0,48,24,24,24,0,0,0,24,0m0,42.058A18.057,18.057,0,1,1,42.058,24,18.079,18.079,0,0,1,24,42.058" fill="#42145f"/><path d="M37.008,23.76h.036L26.337,22.7,25.5,10.992A1.506,1.506,0,0,0,24,9.556a1.439,1.439,0,0,0-1.5,1.436l-1,13.782a2.5,2.5,0,0,0,2.246,2.48c.074.043,13.262-.941,13.262-.941.867-.084,1.5-.45,1.5-1.277s-.578-1.214-1.5-1.276" fill="#42145f"/></g></g></svg>