<svg xmlns="http://www.w3.org/2000/svg" xmlns:xlink="http://www.w3.org/1999/xlink" width="48" height="48" viewBox="0 0 48 48"><defs><clipPath id="b"><rect width="48" height="48"/></clipPath></defs><g id="a" clip-path="url(#b)"><g transform="translate(-0.06 -0.057)"><path d="M46.53,47.94H1.45A2.528,2.528,0,0,1,.06,46.55V7.16A2.348,2.348,0,0,1,2.51,5.77c1.9.05,3.8,0,5.7.02.39,0,.58-.08.59-.51a17.184,17.184,0,0,1,.15-1.89c.11-.81.21-1.63.4-2.43a1.1,1.1,0,0,1,1.26-.9c.74.04,1.48,0,2.22.01.83,0,1.14.21,1.3,1.05a13.139,13.139,0,0,1,.25,2.26c.05,2.47.05,4.94.08,7.4,0,.23.04.45.05.68h.18c.07-.18.14-.37.2-.56.45-1.51.92-3.02,1.35-4.54a.656.656,0,0,1,.78-.57c4.64.02,9.29.01,13.93.01h.77c.05-.61.09-1.16.16-1.7.12-.98.21-1.97.4-2.94.17-.85.53-1.08,1.37-1.08.76,0,1.52.03,2.28,0a1,1,0,0,1,1.12.81,7.452,7.452,0,0,1,.27,1.68c.07,2.76.09,5.52.14,8.29,0,.21.02.42.03.63l.18.02c.07-.19.15-.37.2-.56.46-1.53.93-3.06,1.36-4.6a.629.629,0,0,1,.74-.55c1.92.03,3.84,0,5.76.01a1.973,1.973,0,0,1,2.24,2.26q0,18.735.02,37.48a2.314,2.314,0,0,1-1.41,2.42ZM43.07,43.1V18.33H4.9V43.11H43.08Z" fill="#42145f"/><path d="M16.34,23.06v5.72H8.71V23.06Z" fill="#42145f"/><path d="M39.3,23.05v5.72H31.65V23.05Z" fill="#42145f"/><path d="M20.16,28.78V23.05h7.61v5.73Z" fill="#42145f"/><path d="M16.34,32.66v5.68H8.69V32.66Z" fill="#42145f"/><path d="M20.17,38.34v-5.7h7.6v5.7Z" fill="#42145f"/><path d="M31.64,38.34V32.66h7.63v5.68Z" fill="#42145f"/></g></g></svg>