<svg xmlns="http://www.w3.org/2000/svg" xmlns:xlink="http://www.w3.org/1999/xlink" width="48" height="48" viewBox="0 0 48 48"><defs><clipPath id="b"><rect width="48" height="48"/></clipPath></defs><g id="a" clip-path="url(#b)"><g transform="translate(-0.06 -0.121)"><path d="M.06,41.46Q7.74,28.2,15.41,14.94c2.01-3.46,4.02-6.93,6.04-10.38a2.584,2.584,0,0,1,3.63-1.07,3.362,3.362,0,0,1,1.13,1.15Q35.8,20.81,45.35,37.01c.68,1.14,1.35,2.29,2.02,3.43,1.15,1.95.5,3.66-1.64,4.34-.03.01-.05.06-.08.09H2.34A3.277,3.277,0,0,1,.06,42.84V41.45Zm40.49-2.03c-5.6-9.48-11.14-18.86-16.72-28.3L7.4,39.43H40.55Z" fill="#42145f"/><path d="M25.91,18.47l-.33,12.97h-3.2V18.78Z" fill="#42145f"/><path d="M26.05,34.56a1.927,1.927,0,0,1-2.01,2.21,1.925,1.925,0,0,1-2.12-2.17,2,2,0,0,1,2.07-2.2,1.9,1.9,0,0,1,2.06,2.16Z" fill="#42145f"/></g></g></svg>