<svg xmlns="http://www.w3.org/2000/svg" xmlns:xlink="http://www.w3.org/1999/xlink" width="16" height="16" viewBox="0 0 16 16" fill="#42145F"><defs><clipPath id="a"><rect width="16" height="16"/></clipPath></defs><g clip-path="url(#a)"><path d="M15.36,1.92H13.145L12.6,3.76c-.034.1-.117.072-.117.072V1.92h0c0-.4-.018-1.071-.059-1.319-.035-.213-.073-.6-.383-.6h-.914c-.31,0-.377.393-.411.606-.04.247-.1.913-.128,1.314H5.465L4.917,3.76c-.034.1-.117.072-.117.072V1.92h0c0-.4-.018-1.071-.059-1.319C4.7.388,4.667,0,4.356,0H3.443c-.31,0-.377.393-.411.606-.04.247-.1.913-.128,1.314H.64A.64.64,0,0,0,0,2.56v12.8A.64.64,0,0,0,.64,16H15.36a.64.64,0,0,0,.64-.64V2.56a.64.64,0,0,0-.64-.64M14.4,14.4H1.6V6.08H14.4Z"/><rect width="2.667" height="1.333" transform="translate(2.667 8)"/><rect width="2.667" height="1.333" transform="translate(6.667 8)"/><rect width="2.667" height="1.333" transform="translate(10.667 8)"/><rect width="2.667" height="2" transform="translate(2.667 10.667)"/><rect width="2.667" height="2" transform="translate(6.667 10.667)"/><rect width="2.667" height="2" transform="translate(10.667 10.667)"/></g></svg>