<svg xmlns="http://www.w3.org/2000/svg" xmlns:xlink="http://www.w3.org/1999/xlink" width="48" height="48" viewBox="0 0 48 48"><defs><clipPath id="b"><rect width="48" height="48"/></clipPath></defs><g id="a" clip-path="url(#b)"><g transform="translate(-0.069 -1.629)"><path d="M47.94,24.49v1.39H.09C.08,25.7.07,25.6.07,25.5a5.429,5.429,0,0,1,.02-.57,9.577,9.577,0,0,1,6.4-8.4,6.548,6.548,0,0,1,3.63-.55,19.081,19.081,0,0,1,7.86,3.44c.23.17.46.32.69.49l.14-.14a6.154,6.154,0,0,0-1.75-2.73c-.79-.8-1.66-1.51-2.62-2.37,7.56-2.12,14.32-1.16,20.17,4.34a9.549,9.549,0,0,0-2.64-4.34,14.63,14.63,0,0,1,12.52,3.56,9.886,9.886,0,0,1,3.15,5.06l.3,1.2Z" fill="#42145f"/><path d="M47.94,27.39v1.14s-.08.05-.09.08c-1.04,3.9-3.44,5.75-7.49,5.75H11.62c-1.65,0-3.29.06-4.94-.03A6.689,6.689,0,0,1,.55,30a5.125,5.125,0,0,1-.46-2.57c.13-.01.21-.03.29-.03H13.61a1.653,1.653,0,0,1,.76.24c2.28,1.35,4.57,2.7,6.83,4.09a.753.753,0,0,0,.95-.03q2.985-2.01,6-3.98a2.008,2.008,0,0,1,1.04-.31c6.25-.02,12.49-.01,18.74-.01Z" fill="#42145f"/></g></g></svg>