<svg xmlns="http://www.w3.org/2000/svg" xmlns:xlink="http://www.w3.org/1999/xlink" width="48" height="48" viewBox="0 0 48 48"><defs><clipPath id="b"><rect width="48" height="48"/></clipPath></defs><g id="a" clip-path="url(#b)"><g transform="translate(0.41 -0.052)"><path d="M26.05,47.95c-.15-.06-.3-.12-.45-.17a1.817,1.817,0,0,1-1.45-1.96c0-6.42-.05-12.83.02-19.25a10.766,10.766,0,0,1,3.98-8.1c2.41-2.17,4.75-4.43,7.2-6.72-.28-.11-.5-.2-.73-.28-1.43-.5-2.86-1-4.29-1.51a2.1,2.1,0,0,1-1.5-2.45,2.126,2.126,0,0,1,2.25-1.72c4.6,0,9.2-.02,13.8-.02,1.98,0,2.86,1.09,2.43,3.02-1,4.48-2.02,8.96-3.03,13.44a2.145,2.145,0,0,1-4.27-.24c-.19-1.59-.36-3.18-.54-4.78-.01-.12-.05-.24-.09-.47-.84.79-1.62,1.51-2.39,2.24-1.63,1.53-3.25,3.07-4.9,4.58a4.724,4.724,0,0,0-1.57,3.66V45.01c0,2.1-.06,2.18-1.92,2.93H26.07Z" fill="#42145f"/><path d="M.59,12.75c.84-1.1,1.64-2.23,2.52-3.3,2.35-2.83,4.73-5.62,7.1-8.42a2.153,2.153,0,0,1,3.67.1l8.37,11.04a2.178,2.178,0,0,1,.02,2.94,2.142,2.142,0,0,1-2.92.21c-1.44-.94-2.88-1.9-4.44-2.93V45.01c0,2.11-.04,2.17-1.9,2.95H10.48c-1.86-.77-1.92-.86-1.92-2.94q-.015-15.975-.04-31.95v-.76c-.31.17-.52.27-.71.38-1.25.74-2.5,1.48-3.76,2.21a2.94,2.94,0,0,1-.92.38c-1.08.21-1.76-.22-2.52-1.52V12.75Z" fill="#42145f"/></g></g></svg>