<svg xmlns="http://www.w3.org/2000/svg" xmlns:xlink="http://www.w3.org/1999/xlink" width="103" height="100" viewBox="0 0 103 100" fill="#000000"><defs><clipPath id="a"><rect width="108" height="108"/></clipPath><clipPath id="c"><rect width="103" height="100"/></clipPath></defs><g id="b" clip-path="url(#c)"><g transform="translate(-1.333 -1.333)"><g transform="translate(-1.667 -1.667)" clip-path="url(#a)"><path d="M50.484,65.047c-.319-.144-.628-.29-.959-.429L40.69,61.662A2.648,2.648,0,0,1,38.856,59.6a18.639,18.639,0,0,1-.3-1.856,17.938,17.938,0,0,0,4.578-9.756c2.2-.677,2.635-3.419,2.635-5.131s-.3-2.631-.914-2.918a1.307,1.307,0,0,0-.842-.081c.221-3.563.439-10.616-1.043-13.266-1.622-2.9-3.78-3.649-7.54-2.7-2.465-1.308-4.143-2.6-8.463-1.423-3,.819-6.286,2.155-8.017,4.382-1.868,2.408-1.507,9.425-1.191,13.028a1.335,1.335,0,0,0-.937.064c-.614.287-.914,1.21-.914,2.918s.439,4.454,2.635,5.131c.7,5.864,3.638,9.294,7.248,12.334a7.862,7.862,0,0,0,4.46,1.3c.163.29.163.635-.478.847a11.189,11.189,0,0,1-8.047-1.028c-.031-.015-.053-.029-.081-.044-1.7.455-8.249,2.684-8.249,2.684-2.737,1.081-5.37,2.384-6.685,3.768C3.32,71.426,2,84.767,2,84.767H39.149c.35-4.477,1.429-11.809,4.779-15.336a24.052,24.052,0,0,1,6.556-4.384" transform="translate(1.3 14.991)"/><path d="M83.161,73.745a25.05,25.05,0,0,0-6.6-4.153c-3.658-1.809-7.745-3.409-9.922-4.225a2.455,2.455,0,0,1-1.508-1.955c-.183-1.089-.387-2.7-.548-4.065,5.514-.224,10.076-.767,11.973-1.49a.613.613,0,0,0,.4-.852c-1.038-2.263-3.736-9.71-4.074-13.6-.833-9.545-.8-26.627-13.877-22.341,0,0-8.3-5.305-15.049,3.57C39.2,30.882,40.36,39.117,40.17,43.708c-.136,3.266-2.808,10.808-3.933,12.76a.632.632,0,0,0,.294,1c2.036.738,6.619,1.312,12.007,1.651-.109.972-.248,2.107-.4,3.129h-.005c-.022.154-.044.28-.066.428-.042.253-.083.509-.127.736a2.507,2.507,0,0,1-1.51,1.955c-.914.343-2.177.83-3.592,1.407l.008.005c-1.951.8-4.2,1.766-6.32,2.813a25.093,25.093,0,0,0-6.607,4.153C26.182,77.678,26,89.914,26,89.914H87.078S86.9,77.678,83.161,73.745" transform="translate(18.019 13.245)"/><path d="M18.881,28.351a86.065,86.065,0,0,0,11.5.779l11.771,8.327a1.091,1.091,0,0,0,1.513-.341,1.077,1.077,0,0,0,.154-.769L39.487,22.294s.3-.285.679.17c.256.312,3.169,3.58,5.387,6.065.416-.054.816-.114,1.2-.178,4.209-.719,3.872-12.777,3.872-12.777S50.959,3.514,46.75,2.8A102.323,102.323,0,0,0,32.814,2V2A102.24,102.24,0,0,0,18.881,2.8c-4.211.719-3.873,12.779-3.873,12.779s-.338,12.058,3.873,12.777" transform="translate(10.357 1.059)"/></g></g></g></svg>