<svg xmlns="http://www.w3.org/2000/svg" xmlns:xlink="http://www.w3.org/1999/xlink" width="92" height="100" viewBox="0 0 92 100" fill="#000000"><defs><clipPath id="a"><rect width="80.94" height="100"/></clipPath><clipPath id="c"><rect width="92" height="100"/></clipPath></defs><g id="b" clip-path="url(#c)"><g transform="translate(5.53)"><g transform="translate(0 0)" clip-path="url(#a)"><path d="M80.352,51.643,69.459,39.109c-.36-1.587.232-4.517,0-5.858a68.983,68.983,0,0,0-4.6-14.265c3.708-7.072,1.9-12.629-3.682-16.216C54.819-1.316,31.7-1.737,14.826,7.437-2.968,17.114-1.044,34.42,1.953,43.476c3.487,10.536,13.9,25.475,14.624,36.736C16.891,85.151,13.252,100,13.252,100H52.469l-.237-10.533-9.657-4.979c-.513-.281-.366-.62-.309-.71,0,0,14.483,3.118,20.107,3.856,5.643.74,11.058-4.062,11.058-10.916V59.745l5.863-3.105a3.6,3.6,0,0,0,1.058-5M48.049,14.06l2.487,2.487-4.972,4.97-2.485-2.485ZM31.38,8.611h3.515v7.03H31.38ZM18.225,14.06l4.97,4.972L20.71,21.517l-4.97-4.97ZM17.32,33.216H10.29V29.7h7.03Zm21.09,9.54v5.011a1.756,1.756,0,0,1-1.2,1.668l-2.313.772v2.343H31.38V50.205l-2.313-.772a1.758,1.758,0,0,1-1.2-1.668V42.756a12.478,12.478,0,1,1,10.545,0m17.575-9.54h-7.03V29.7h7.03Z" transform="translate(0 0)"/></g></g></g></svg>