<svg xmlns="http://www.w3.org/2000/svg" width="100" height="94.643" viewBox="0 0 100 94.643" fill="#DDEFF8"><g transform="translate(-4 -4)"><path d="M9,55.235V70.226H28.643V47.144l-7.421-6.979Z" transform="translate(3.928 28.416)"/><path d="M28.643,41.614V21H9V46.48L19.737,33.241Z" transform="translate(3.928 13.357)"/><path d="M24,56.966V73.332H43.643V36.214L26.827,59.625Z" transform="translate(15.714 25.311)"/><path d="M43.643,27.463V15H24V53.045l.745.7Z" transform="translate(15.714 8.643)"/><path d="M39,31.109V78.169H58.643V52.491L39.755,30.057Z" transform="translate(27.5 20.473)"/><path d="M58.643,49.409V4H39l.032,22.129Z" transform="translate(27.5 0)"/><path d="M93.815,52.135,66.722,19.97,41.006,55.745,24.056,39.808,4,64.536V75.876l20.761-25.6L41.993,66.481l25.07-34.889L94.541,64.224,104,49.488V36.265Z" transform="translate(0 12.548)"/></g></svg>