<svg xmlns="http://www.w3.org/2000/svg" xmlns:xlink="http://www.w3.org/1999/xlink" width="48" height="48" viewBox="0 0 48 48"><defs><clipPath id="b"><rect width="48" height="48"/></clipPath></defs><g id="a" clip-path="url(#b)"><path d="M0,42.81a20.8,20.8,0,0,1,1.7-2.23c3.27-3.33,6.58-6.61,9.89-9.9a3.837,3.837,0,0,1,.56-.41l-.1-.19-3.28-.3c-1.79-.16-3.58-.27-5.35-.49a2.8,2.8,0,0,1-2.24-3.84,2.629,2.629,0,0,1,2.21-1.76c3.29-.39,6.58-.76,9.87-1.13,3.25-.36,6.5-.7,9.75-1.09a2.9,2.9,0,0,1,3.4,3.42c-.51,4.36-.97,8.72-1.46,13.08-.24,2.14-.47,4.28-.74,6.41a2.833,2.833,0,0,1-5.62.07c-.25-2.22-.41-4.45-.61-6.68-.06-.64-.12-1.29-.19-2.07-.25.24-.41.39-.56.54-3.3,3.3-6.58,6.61-9.91,9.88a22.784,22.784,0,0,1-2.26,1.76H3.79a20.461,20.461,0,0,1-1.88-1.09A6.4,6.4,0,0,1,0,44.2Z" fill="#42145f"/><path d="M12.42,7.13v9.4H5.32V2.71A2.526,2.526,0,0,1,8.05,0h37.1a2.531,2.531,0,0,1,2.72,2.72V39.83a2.539,2.539,0,0,1-2.73,2.72H31.35V35.46h9.36V7.13Z" fill="#42145f"/></g></svg>