<svg xmlns="http://www.w3.org/2000/svg" xmlns:xlink="http://www.w3.org/1999/xlink" width="48" height="48" viewBox="0 0 48 48"><defs><clipPath id="b"><rect width="48" height="48"/></clipPath></defs><g id="a" clip-path="url(#b)"><g transform="translate(0.03 0.025)"><path d="M34.78,47.83a13.606,13.606,0,0,0,1.09-2.11c.44-1.35.06-2.66-1.89-2.63-.88-2.15-2.73-2.41-4.7-2.38a3.805,3.805,0,0,0-3.81,2.37c-.74,0-1.64.27-2.16-.06-.47-.29-.56-1.24-.75-1.91-.88-2.99-1.74-5.99-2.63-8.98-.19-.64-.49-1.24-.77-1.94.76-.23,1.59-.48,2.42-.72,1.49-.43,1.5-.42,1.65-1.98a1.127,1.127,0,0,0-.22-.73,10.6,10.6,0,0,1-2.41-4.81.865.865,0,0,0-.15-.34,5.9,5.9,0,0,1-.67-6.79,1.352,1.352,0,0,0,.08-.61c0-1.29-.01-2.57,0-3.86a8.309,8.309,0,0,1,.12-1.04l4.01.62.06-.21-6.94-2.7c.17,1.16-.29,2.22.42,3.22a1.414,1.414,0,0,1-.08,1.67,1.331,1.331,0,0,0-.18,1.06c.17,1.19.35,2.38.42,3.58a1.636,1.636,0,0,1-1.8,1.94,6.08,6.08,0,0,1-2.29-.53,1.276,1.276,0,0,1-.73-1.79c.43-1.18.95-2.33,1.49-3.48a.879.879,0,0,0,.05-.96,1.639,1.639,0,0,1,.11-1.69,2.061,2.061,0,0,0,.27-.86c.04-.84-.01-1.69.02-2.53a.625.625,0,0,0-.51-.72,17.813,17.813,0,0,1-1.71-.67,1.7,1.7,0,0,1-.44-.37c.17-.13.32-.33.51-.38,2.92-.82,5.84-1.62,8.77-2.43C23.91,1.4,26.38.7,28.87.05a2.559,2.559,0,0,1,1.23,0q8.085,2.19,16.15,4.44a2.317,2.317,0,0,1,.58.38,2.79,2.79,0,0,1-.56.43c-2.49.98-4.98,1.94-7.42,2.88v6.16a.977.977,0,0,0,.13.47,6.023,6.023,0,0,1-.59,6.69,1.226,1.226,0,0,0-.26.49,10.856,10.856,0,0,1-2.04,4.31,1.38,1.38,0,0,0-.2.85c.07.67.02,1.5.39,1.94s1.22.46,1.84.73c1.68.72,3.36,1.44,5.01,2.23a4.743,4.743,0,0,1,2.43,3.01,51.17,51.17,0,0,1,1.77,8.66c.19,1.36.34,2.72.51,4.08H34.8Zm.44-33.1a20.12,20.12,0,0,1-11.73-.08v2.99c-.76-.08-.77-.6-.91-1.06-.07-.22-.29-.55-.44-.55a.948.948,0,0,0-.7.39,3.419,3.419,0,0,0,.72,3.67,1.114,1.114,0,0,1,.6,1.11,1.61,1.61,0,0,0,.07.43,8.506,8.506,0,0,0,2.46,4.27,1.19,1.19,0,0,1,.33,1.19c-.17.89-.27,1.79-.44,2.68a2.841,2.841,0,0,0,.97,2.91c.99.8,2.07,1.5,3.14,2.21a.773.773,0,0,0,.68,0,31.372,31.372,0,0,0,2.96-2.14c1.28-1.09,1.29-2.53.87-4.04-2.96,1.16-5.57.64-6.47-1.29.27.07.51.13.75.2a4.205,4.205,0,0,0,3.71-.48c2.12-1.6,3.92-3.48,4.22-6.33a.655.655,0,0,1,.18-.43c1.34-.83,1.38-2.12,1.24-3.46-.05-.45-.21-.9-.78-.91s-.49.49-.57.82c-.11.44-.24.8-.86.81v-2.9Z" fill="#42145f"/><path d="M.97,31.49a1.58,1.58,0,0,1,1.69-1.01c4.39.03,8.78.01,13.16.01a2.264,2.264,0,0,1,2.6,1.95q1.71,5.85,3.41,11.71c.05.16.1.32.16.51h12.4a2.7,2.7,0,0,1-1.68,2.73c-.36.17-.74.29-1.11.43H6.67a2.859,2.859,0,0,1-1.61-1.95c-.79-2.85-1.63-5.69-2.47-8.53-.53-1.79-1.08-3.57-1.62-5.35v-.51Z" fill="#42145f"/></g></g></svg>