<svg xmlns="http://www.w3.org/2000/svg" xmlns:xlink="http://www.w3.org/1999/xlink" width="100" height="100" viewBox="0 0 100 100" fill="#DDEFF8"><defs><clipPath id="a"><rect width="100" height="100"/></clipPath></defs><g clip-path="url(#a)"><path d="M46.7,61.69c-.294-.133-.579-.268-.884-.4l-8.147-2.725a2.441,2.441,0,0,1-1.691-1.9,17.184,17.184,0,0,1-.272-1.711,16.539,16.539,0,0,0,4.221-8.995c2.024-.624,2.429-3.152,2.429-4.73s-.278-2.426-.843-2.691a1.2,1.2,0,0,0-.776-.075c.2-3.285.405-9.788-.962-12.231-1.5-2.672-3.485-3.365-6.952-2.494-2.273-1.206-3.82-2.4-7.8-1.312-2.767.756-5.8,1.987-7.391,4.041-1.722,2.22-1.389,8.69-1.1,12.012a1.231,1.231,0,0,0-.864.059c-.566.264-.843,1.115-.843,2.691s.405,4.106,2.429,4.73c.649,5.406,3.354,8.569,6.683,11.373a7.249,7.249,0,0,0,4.113,1.2c.15.268.15.585-.441.781a10.316,10.316,0,0,1-7.42-.948c-.028-.014-.048-.027-.075-.041-1.564.419-7.606,2.475-7.606,2.475-2.523,1-4.951,2.2-6.163,3.474C3.217,67.572,2,79.872,2,79.872H36.252c.322-4.128,1.317-10.888,4.407-14.14A22.176,22.176,0,0,1,46.7,61.69" transform="translate(1.129 12.415)"/><path d="M78.7,69.515a23.1,23.1,0,0,0-6.09-3.829c-3.373-1.668-7.141-3.143-9.148-3.9a2.263,2.263,0,0,1-1.391-1.8c-.169-1-.357-2.494-.505-3.748,5.084-.206,9.29-.707,11.039-1.373a.565.565,0,0,0,.366-.785c-.957-2.087-3.445-8.953-3.756-12.538-.768-8.8-.737-24.55-12.795-20.6,0,0-7.657-4.892-13.876,3.291-4.375,5.758-3.309,13.351-3.484,17.585-.125,3.011-2.589,9.965-3.626,11.765a.583.583,0,0,0,.271.923c1.877.68,6.1,1.209,11.071,1.522-.1.9-.228,1.943-.372,2.885h0c-.02.142-.041.258-.061.394-.039.233-.077.469-.117.679a2.311,2.311,0,0,1-1.392,1.8c-.843.316-2.007.765-3.312,1.3l.008,0c-1.8.734-3.875,1.628-5.827,2.594a23.136,23.136,0,0,0-6.091,3.829C26.167,73.141,26,84.423,26,84.423H82.316S82.148,73.141,78.7,69.515" transform="translate(14.672 11.001)"/><path d="M18.578,26.3a79.354,79.354,0,0,0,10.608.718l10.853,7.678a1,1,0,0,0,1.4-.314.993.993,0,0,0,.142-.709l-4-12.957s.278-.263.626.156c.236.288,2.922,3.3,4.967,5.592.383-.05.752-.1,1.1-.164,3.881-.663,3.57-11.781,3.57-11.781S48.155,3.4,44.274,2.733A94.344,94.344,0,0,0,31.425,2V2a94.268,94.268,0,0,0-12.846.732C14.7,3.4,15.007,14.516,15.007,14.516S14.7,25.633,18.578,26.3" transform="translate(8.465 1.129)"/></g></svg>