<svg xmlns="http://www.w3.org/2000/svg" xmlns:xlink="http://www.w3.org/1999/xlink" width="48" height="48" viewBox="0 0 48 48"><defs><clipPath id="b"><rect width="48" height="48"/></clipPath></defs><g id="a" clip-path="url(#b)"><g transform="translate(-0.06 -0.06)"><path d="M21.59,41.94c.42-2.06.8-4.12,1.28-6.16a3.654,3.654,0,0,1,2.29-2.61q2.43-.975,4.9-1.83a1.34,1.34,0,0,0,.72-2.27,7.822,7.822,0,0,1-1.59-3.53.816.816,0,0,0-.33-.53c-.99-.54-1.1-2.57-.75-3.29.1-.21.39-.33.68-.56,0-1.31-.04-2.71.01-4.12a2.847,2.847,0,0,1,1.58-2.5c1.47-.81,3.01-1.59,4.73-1.17a14.052,14.052,0,0,0,3.44.65,2.111,2.111,0,0,1,2,2.04c.22,1.58.2,3.18.28,4.78v.37c1.06.71,1.01,2.9-.06,3.73a1.438,1.438,0,0,0-.46.74,8.671,8.671,0,0,1-1.64,3.45,1.4,1.4,0,0,0,.68,2.21c1.66.59,3.33,1.17,4.98,1.81a3.971,3.971,0,0,1,2.38,2.62,27.093,27.093,0,0,1,1.22,6.17H21.59Z" fill="#42145f"/><path d="M.06,7.15A2.088,2.088,0,0,1,2.15,6.06q15.06.03,30.13.01c1.57,0,2.08.52,2.08,2.08v3.26l-3.19.73V9.34H3.29V29.91H28.24l.02.12c-.12.06-.24.12-.37.17-1.96.71-3.96,1.34-5.5,2.87a.808.808,0,0,1-.52.12q-10.035,0-20.07.01A1.857,1.857,0,0,1,.06,32.08V7.15Z" fill="#42145f"/><path d="M25.75,15.92l-1.44.19a.7.7,0,0,0,.49.83,7.138,7.138,0,0,1,1.42.68,6.319,6.319,0,0,1,.94.99l-.13.18H19.38a1.192,1.192,0,0,1,.65-1.11c.52-.28,1.05-.52,1.59-.76a.658.658,0,0,0,.44-.85l-1.37-.21c.15-1.19.25-2.31.43-3.42a1.7,1.7,0,0,1,2.29-1.47.564.564,0,0,1,.12.04c1.31.11,1.44.22,1.67,1.51.19,1.09.36,2.18.55,3.39Z" fill="#42145f"/><path d="M10.12,25.66l-1.4-.23c.13-1.09.25-2.1.38-3.1.2-1.47.9-1.98,2.41-1.77,1.45.2,1.54.31,1.76,1.8.15,1.01.34,2.02.52,3.11l-1.41.22a.618.618,0,0,0,.44.82c.5.21,1,.44,1.49.69a1.278,1.278,0,0,1,.73,1.18H7.42a1.149,1.149,0,0,1,.66-1.14,12.332,12.332,0,0,1,1.42-.68A.8.8,0,0,0,10.12,25.66Z" fill="#42145f"/><path d="M15.26,18.81H7.2c.04-1.05.72-1.48,1.56-1.78.41-.15.97-.23,1.14-.53.13-.23-.21-.76-.37-1.14-.13-.3-.31-.58-.43-.89a1.425,1.425,0,0,1-.09-.68c.04-.45.17-.88.21-1.33a1.444,1.444,0,0,1,1.19-1.5,4.049,4.049,0,0,1,2.26.24c.23.05.42.62.52.98a11.2,11.2,0,0,1,.26,1.64,1.03,1.03,0,0,1-.08.55c-.26.55-.53,1.09-.83,1.61-.23.4-.13.63.27.78s.84.27,1.25.44c.83.35,1.01.6,1.19,1.61Z" fill="#42145f"/><path d="M27.22,28.38H19.17a1.607,1.607,0,0,1,1-1.54c.47-.18.94-.35,1.42-.52.41-.15.5-.38.27-.77a17.347,17.347,0,0,1-.83-1.6,1.18,1.18,0,0,1-.05-.62c.05-.44.18-.87.22-1.31a1.774,1.774,0,0,1,2.31-1.52,2.956,2.956,0,0,0,.47.17c.95.09,1.13.29,1.2,1.21.03.48.17.96.23,1.45a1.086,1.086,0,0,1-.05.62c-.24.53-.51,1.04-.8,1.55-.28.49-.21.69.33.88.38.13.75.26,1.13.39a1.672,1.672,0,0,1,1.2,1.63Z" fill="#42145f"/></g></g></svg>